<svg width="244" height="148" viewBox="0 0 244 148" fill="none" xmlns="http://www.w3.org/2000/svg">
<g clip-path="url(#clip0_426_291)">
<rect x="114" y="68" width="16" height="12" rx="1" stroke="#BBBBBB" stroke-width="2"/>
<path fill-rule="evenodd" clip-rule="evenodd" d="M123.571 77.4286L120 73.5L115 79H122H125H129L125.5 75.5L123.571 77.4286Z" fill="#BBBBBB"/>
<circle cx="123.5" cy="72" r="1.5" fill="#BBBBBB"/>
<path d="M242.514 2.85749C242.988 2.57334 243.142 1.95908 242.857 1.4855C242.573 1.01192 241.959 0.858359 241.486 1.14251L242.514 2.85749ZM148.152 57.1425C147.679 57.4267 147.525 58.0409 147.809 58.5145C148.093 58.9881 148.708 59.1416 149.181 58.8575L148.152 57.1425ZM95.8478 90.8575C96.3214 90.5733 96.475 89.9591 96.1908 89.4855C95.9067 89.0119 95.2924 88.8584 94.8188 89.1425L95.8478 90.8575ZM1.4855 145.143C1.01192 145.427 0.858359 146.041 1.14251 146.514C1.42666 146.988 2.04092 147.142 2.5145 146.857L1.4855 145.143ZM2.5145 1.14251C2.04092 0.858359 1.42666 1.01192 1.14251 1.4855C0.858359 1.95908 1.01192 2.57334 1.4855 2.85749L2.5145 1.14251ZM94.8188 58.8575C95.2924 59.1416 95.9067 58.9881 96.1908 58.5145C96.475 58.0409 96.3214 57.4267 95.8478 57.1425L94.8188 58.8575ZM149.181 89.1425C148.708 88.8584 148.093 89.0119 147.809 89.4855C147.525 89.9591 147.679 90.5733 148.152 90.8575L149.181 89.1425ZM241.486 146.857C241.959 147.142 242.573 146.988 242.857 146.514C243.142 146.041 242.988 145.427 242.514 145.143L241.486 146.857ZM241.486 1.14251L148.152 57.1425L149.181 58.8575L242.514 2.85749L241.486 1.14251ZM94.8188 89.1425L1.4855 145.143L2.5145 146.857L95.8478 90.8575L94.8188 89.1425ZM1.4855 2.85749L94.8188 58.8575L95.8478 57.1425L2.5145 1.14251L1.4855 2.85749ZM148.152 90.8575L241.486 146.857L242.514 145.143L149.181 89.1425L148.152 90.8575Z" fill="#BBBBBB"/>
</g>
<rect x="1" y="1" width="242" height="146" stroke="#BBBBBB" stroke-width="2" stroke-linejoin="round"/>
<defs>
<clipPath id="clip0_426_291">
<rect x="2" y="2" width="240" height="144" fill="white"/>
</clipPath>
</defs>
</svg>
